# xmcd CD database file
#
# Track frame offsets:
#	150
#	22503
#	47293
#	67822
#	95765
#	121030
#	143388
#	165413
#	184736
#	206667
#	228548
#	250740
#
# Disc length: 3635 seconds
#
# Revision: 0
# Processed by: cddbd v1.5PL3 Copyright (c) Steve Scherf et al.
# Submitted via: CDex 1.51
#
DISCID=880e310c
DTITLE=G-Sax - Color of Passion
DYEAR=2003
DGENRE=Jazz
TTITLE0=Dance with me
TTITLE1=Yellow Star
TTITLE2=Between Night and Day
TTITLE3=Happy just to be with you
TTITLE4=Todo Ben
TTITLE5=Deep Sensation
TTITLE6=This World
TTITLE7=Blue Sky
TTITLE8=Check it out
TTITLE9=Memories of my heart
TTITLE10=G-Groove
TTITLE11=Dancing with the Stars
EXTD=YEAR: 2003
EXTT0=
EXTT1=
EXTT2=
EXTT3=
EXTT4=
EXTT5=
EXTT6=
EXTT7=
EXTT8=
EXTT9=
EXTT10=
EXTT11=
PLAYORDER=
